PathFileType	4	(X/Y/Z)	8_coords_data.trc
DataRate	CameraRate	NumFrames	NumMarkers	Units	OrigDataRate	OrigDataStartFrame	OrigNumFrames
30.0	30.0	7	21	m	30.0	1	59
Frame#	Time	THUMB_TIP	THUMB_IP	THUMB_MCP	THUMB_CMC	INDEX_TIP	INDEX_DIP	INDEX_PIP	INDEX_MCP	MIDDLE_TIP	MIDDLE_DIP	MIDDLE_PIP	MIDDLE_MCP	RING_TIP	RING_DIP	RING_PIP	RING_MCP	PINKY_TIP	PINKY_DIP	PINKY_PIP	PINKY_MCP	WRIST
X1	Y1	Z1	X2	Y2	Z2	X3	Y3	Z3	X4	Y4	Z4	X5	Y5	Z5	X6	Y6	Z6	X7	Y7	Z7	X8	Y8	Z8	X9	Y9	Z9	X10	Y10	Z10	X11	Y11	Z11	X12	Y12	Z12	X13	Y13	Z13	X14	Y14	Z14	X15	Y15	Z15	X16	Y16	Z16	X17	Y17	Z17	X18	Y18	Z18	X19	Y19	Z19	X20	Y20	Z20	X21	Y21	Z21
0	-2.749317978547796e-18	0.5429522570865175	-0.02880098388066399	-0.12647707709247397	0.5200433212691306	-0.027820778390620915	-0.12498715866781597	0.4897657055973359	-0.023890082142072444	-0.11893442240784693	0.47797822469556805	-0.024399638723056505	-0.07591482633720448	0.5554993843090389	0.07525288455656509	-0.15326249797108574	0.5456335508686018	0.061932613119385416	-0.14596621814055516	0.5296214883235665	0.047149568439731726	-0.13343285163138277	0.5055700420197872	0.021266788349984522	-0.10965795479622896	0.5125729972672259	-0.012577990149710616	-0.11205882543669902	0.5281393074890834	-0.016800849798711437	-0.12029638833246703	0.5465975261638213	0.005694782573241186	-0.11866843331419472	0.5171124581086268	0.02362086339726538	-0.09028825873631184	0.5242454742282627	-0.02398665872942951	-0.10522999816903343	0.5414314049835096	-0.019918176041350266	-0.10884817902308964	0.5572702149495778	-0.001830909353981225	-0.10235488543364145	0.5300481983590892	0.012260802680492455	-0.07599001678832798	0.6030545478303283	0.014700133599208742	-0.06784215404323285	0.5867639665330422	0.009445510767157161	-0.0679189647807159	0.5662939489746257	0.004828755557429565	-0.06860887165238394	0.5318957617299903	-0.005945076819708572	-0.06986294549085742	0.462283081001861	-0.023011742144276925	-0.051989820119430985
1	0.03333333333333339	0.545268391448982	-0.0276992129231024	-0.12564305448235677	0.5223406789491362	-0.02673786820548485	-0.12446160797137094	0.49207749056732175	-0.02285335151322787	-0.11830775072291348	0.4774644626663527	-0.02489644645184219	-0.07621053966757982	0.5561417703217708	0.07538303564991922	-0.15270782983042266	0.5460773748222745	0.06214299562134207	-0.1455378031030391	0.530244911036984	0.047384479098713905	-0.13274995287171498	0.5060349217593606	0.021542100641952555	-0.10909231163521638	0.5122010636438566	-0.013690169783820427	-0.11103634647800807	0.5279173915002284	-0.017092469880106598	-0.11936829659582833	0.5466665051492863	0.005199293728222032	-0.1183897453170954	0.517612216066116	0.023450298291658345	-0.08977336820018895	0.5243418604518562	-0.023863949655003047	-0.10446277871784697	0.5415204075001917	-0.01980523181119853	-0.10812670158446207	0.5575248632490614	-0.0017920619027976814	-0.10183678226593644	0.5300421823866861	0.012401522764534323	-0.07579901659934929	0.6030306015129031	0.014975368922161447	-0.06704440941045264	0.5867699445461584	0.009641308385372471	-0.06741701268435388	0.5663648459188694	0.004734942423065158	-0.06802655518042514	0.532029430883837	-0.0061989052888388185	-0.06958016374920148	0.4622830810018609	-0.023011742144276925	-0.051989820119430985
2	0.06666666666666676	0.5469927063634141	-0.026854289357876482	-0.12482078998263708	0.524053419711678	-0.025905080209348896	-0.12387838354068698	0.4938015663013694	-0.022054662265066804	-0.11764784207982193	0.4770752776573144	-0.025264662944555094	-0.076419003097461	0.5566443672513411	0.07544786036684237	-0.15228755275788453	0.5464259806617259	0.0622747060448568	-0.14521276790501997	0.530723459312653	0.04754548683386961	-0.13223236892360965	0.5063832869538767	0.021740721277665243	-0.10866743357181216	0.5119369489489995	-0.014569214593080138	-0.11029821725701333	0.5277471280529075	-0.017318158712928744	-0.11869354589431534	0.5466982991504971	0.004817945804606927	-0.11818803544079536	0.5179800861173762	0.023318281075408398	-0.08939307483911654	0.5244301224424903	-0.02377801357556386	-0.10389026992381291	0.5416004757208304	-0.019717563154966422	-0.10759050108941148	0.557722836725082	-0.0017603082705566209	-0.10144343254701403	0.5300385868959865	0.012502585014329548	-0.07565830077414576	0.6030068933980399	0.01515856900571666	-0.06645976017746222	0.5867706319316051	0.009770603023923963	-0.06705443334198738	0.566414880044607	0.004656089914007899	-0.06759953861941023	0.532127288724425	-0.006393369292229001	-0.06937548448285535	0.462283081001861	-0.023011742144276925	-0.051989820119430985
3	0.10000000000000014	0.548200070138952	-0.026254608775125088	-0.12413634286727433	0.52525416569636	-0.02531074973181391	-0.1233652401388429	0.495010756867736	-0.02148352215447802	-0.11707965731017911	0.4767958302279979	-0.02552473207818151	-0.07656083366163863	0.5570283501603457	0.07545942825801144	-0.15198846677597724	0.5466939565976997	0.062340771152391006	-0.14498124582630723	0.5310764801192207	0.04764398559782823	-0.13186222315663576	0.5066322400499104	0.021874207270256962	-0.10836682474797356	0.5117632614058026	-0.015224293455114446	-0.10979300423193013	0.5276283183493625	-0.017487889642059162	-0.11822959717458473	0.5467124862295789	0.004538717673954085	-0.11804888617361572	0.5182398341734267	0.023219401650666438	-0.08912678299885522	0.5245100991743923	-0.023725892135742943	-0.10348778821476415	0.541671908722624	-0.019653737675671135	-0.10721469726698636	0.5578729396591583	-0.0017362622320772347	-0.10115906771080699	0.530037492311463	0.012569303041835345	-0.0755610305370799	0.6029928374803254	0.015257520522232837	-0.06606900047341618	0.5867731607879229	0.009838708030639909	-0.06681636863897428	0.5664514245904986	0.004585603884544764	-0.06731028538557352	0.5321960793768623	-0.006538444628626072	-0.06923650447260168	0.4622830810018608	-0.023011742144276925	-0.051989820119430985
4	0.13333333333333353	0.5489770242611616	-0.025871890490008598	-0.1236493068504398	0.5260277864729704	-0.02492681990149559	-0.12298648973856448	0.4957902678953079	-0.021113222143040455	-0.11666439021370581	0.4766108982202516	-0.025694632748541113	-0.07665123667975732	0.5573123129977369	0.07542736850698212	-0.15179646886010928	0.5468939723504787	0.06235214549373169	-0.14483251012161485	0.5313221026195855	0.047689819620967466	-0.13162104138854203	0.506797221041263	0.021952733059204088	-0.10817389544534547	0.5116631272660112	-0.015673814334495773	-0.10947734104463075	0.5275575315247089	-0.017610185123082323	-0.11794010545291961	0.5467207946155443	0.004348377247116897	-0.11796099433737067	0.5184109366546943	0.023148388757351812	-0.08895652174344935	0.5245814594019446	-0.023703691030773855	-0.10323162350837992	0.5417348129558109	-0.019611944332221243	-0.10697596200949587	0.5579825910779075	-0.0017204881957082474	-0.10096884269901482	0.5300388652692418	0.012606374149654487	-0.07550101913147877	0.6029930806016517	0.01528114608951614	-0.0658505108126215	0.5867813390363046	0.009851747138042821	-0.0666878055302316	0.5664794162662922	0.004518989816846175	-0.06714129223750903	0.5322412207721461	-0.0066427412590087664	-0.0691525554462755	0.4622830810018609	-0.023011742144276925	-0.051989820119430985
5	0.1666666666666669	0.5494052448345129	-0.025672484346383695	-0.1233717461081691	0.5264548547976655	-0.02472009802666708	-0.12276137126056155	0.4962211077452964	-0.020912044886874703	-0.11641792815307796	0.4765053583097132	-0.02579039150039064	-0.07670167255777165	0.5575130017093004	0.07535954342222784	-0.15169681079762867	0.5470373510162183	0.062318269631182366	-0.14475520288133759	0.5314775922894657	0.047691699116711284	-0.13148994086543841	0.5068924618808018	0.02198548045857196	-0.10807204644495456	0.5116212942941746	-0.015942888775081432	-0.10931454441063332	0.5275287958190089	-0.017692839792312398	-0.11779328645616632	0.546729269475863	0.004232864291129235	-0.1179151954295858	0.5185099649715633	0.0231001117282017	-0.08886617223702563	0.5246437151301773	-0.02370694788804384	-0.10309872032696718	0.5417890940900828	-0.0195901450722904	-0.1068521074502785	0.5580582069880774	-0.0017135167172719346	-0.10085860236820396	0.5300425957067378	0.01261806326306969	-0.07547253977866578	0.6030087290999135	0.015239106135918834	-0.06578074308494802	0.586796620066899	0.009816389024564942	-0.06665347433331759	0.5665020128606023	0.00445324643504974	-0.06707494664160801	0.5322672435940734	-0.006713921222394892	-0.06911415991590314	0.462283081001861	-0.023011742144276925	-0.051989820119430985
6	0.20000000000000023	0.5495569319453033	-0.02562241030842316	-0.12328533364319981	0.5266069287903478	-0.024657231300015514	-0.12268053229626201	0.49637533681181256	-0.020848196696846344	-0.1163274148067748	0.476464317444769	-0.02582664371810206	-0.07672114796651616	0.5576459209470602	0.07526261067710072	-0.15167430575623764	0.5471345317156273	0.06224754789271775	-0.14473753149553947	0.5315596415786952	0.047657552799846015	-0.13144976744689418	0.5069313712498205	0.021980963170838475	-0.10804470090925294	0.5116241950324564	-0.016061035827307335	-0.10927284114543137	0.5275342735276544	-0.017743307490001747	-0.11776044176807682	0.5467400960106007	0.004177582190998619	-0.1179037189364322	0.5185516039048995	0.02306955271373612	-0.08884085115682651	0.5246962312814191	-0.023730947735555286	-0.10306643952014123	0.5418344573600722	-0.019586178268262033	-0.10682171486823092	0.5581055071430172	-0.0017158584415047917	-0.10081467006647239	0.5300485234524536	0.012608348796454782	-0.07547017190234523	0.6030384762770086	0.0151415295525128	-0.06583476656570234	0.5868188914807425	0.009739665021583521	-0.06669785904407494	0.5665211617441404	0.00438638031084404	-0.06709349694117372	0.5322781074601906	-0.0067590152857794905	-0.06911261588299747	0.4622830810018609	-0.023011742144276925	-0.051989820119430985
